<svg width="11" height="17" viewBox="0 0 11 17" fill="none" xmlns="http://www.w3.org/2000/svg">
<path d="M10.4609 8.35714C10.4609 8.22321 10.394 8.07254 10.2935 7.9721L2.49219 0.170758C2.39174 0.0703125 2.24107 0.00334668 2.10714 0.00334668C1.97321 0.00334668 1.82254 0.0703125 1.7221 0.170758L0.885045 1.00781C0.784598 1.10826 0.717634 1.25893 0.717634 1.39286C0.717634 1.52678 0.784598 1.67745 0.885045 1.7779L7.46429 8.35714L0.885045 14.9364C0.784598 15.0368 0.717634 15.1875 0.717634 15.3214C0.717634 15.4721 0.784598 15.606 0.885045 15.7065L1.7221 16.5435C1.82254 16.644 1.97321 16.7109 2.10714 16.7109C2.24107 16.7109 2.39174 16.644 2.49219 16.5435L10.2935 8.74219C10.394 8.64174 10.4609 8.49107 10.4609 8.35714Z" fill="white"/>
</svg>
