<svg width="54" height="75" viewBox="0 0 54 75" fill="none" xmlns="http://www.w3.org/2000/svg">
<path d="M52.1213 27.3269C52.1213 12.7385 39.9173 1.03117 25.27 2.0634C12.969 2.92577 2.98221 12.9606 2.07079 25.3931C1.26925 36.3426 7.35185 45.9462 16.4014 50.2516C17.7588 50.8983 18.625 52.2768 18.625 53.7925V59.7964V64.3304C18.625 68.7076 21.7988 72.549 26.1038 73.0325C31.191 73.6009 35.5024 69.5895 35.5024 64.5591V53.7925C35.5024 52.2768 36.3751 50.8983 37.7325 50.2516C46.2326 46.1945 52.1213 37.4597 52.1213 27.3269Z" stroke="white" stroke-width="2.5" stroke-miterlimit="10"/>
<path d="M35.4961 59.4502H18.6187" stroke="white" stroke-width="2.5" stroke-miterlimit="10"/>
<path d="M27.0606 28.9535C22.1544 28.9535 18.1597 32.991 18.1597 37.9496V43.1892C20.7646 44.7571 23.8092 45.6652 27.0606 45.6652C30.3119 45.6652 33.3565 44.7636 35.9614 43.1892V37.9496C35.9614 32.991 31.9667 28.9535 27.0606 28.9535Z" fill="#907EFF"/>
<path d="M13.7706 37.9496C13.7706 30.5411 19.7304 24.5175 27.0605 24.5175C34.3907 24.5175 40.3505 30.5411 40.3505 37.9496V39.4326C42.9231 36.3621 44.4745 32.3965 44.4745 28.065C44.4745 18.3438 36.6789 10.4648 27.0605 10.4648C17.4422 10.4648 9.64661 18.3438 9.64661 28.065C9.64661 32.403 11.198 36.3686 13.7706 39.4326V37.9496V37.9496Z" fill="#907EFF"/>
</svg>
