<svg width="48" height="67" viewBox="0 0 48 67" fill="none" xmlns="http://www.w3.org/2000/svg">
<path d="M24.6496 34.6975C31.5305 34.6975 37.1086 29.1195 37.1086 22.2386C37.1086 15.3577 31.5305 9.77959 24.6496 9.77959C17.7687 9.77959 12.1906 15.3577 12.1906 22.2386C12.1906 29.1195 17.7687 34.6975 24.6496 34.6975Z" fill="#907EFF"/>
<path d="M45.8694 22.3308C45.8694 24.4215 41.7641 25.8311 41.1519 27.716C40.5187 29.6694 42.9883 33.2226 41.8063 34.8487C40.6137 36.4907 36.4609 35.2341 34.8198 36.4273C33.1945 37.61 33.1154 41.9551 31.1629 42.5886C29.2791 43.2011 26.6724 39.7535 24.5828 39.7535C22.4931 39.7535 19.8864 43.2011 18.0026 42.5886C16.0501 41.9551 15.971 37.61 14.3457 36.4273C12.7046 35.2341 8.55179 36.4907 7.35923 34.8487C6.17722 33.2226 8.64677 29.6694 8.01355 27.716C7.40144 25.8311 3.29608 24.4162 3.29608 22.3308C3.29608 20.2453 7.40144 18.8304 8.01355 16.9456C8.64677 14.9921 6.17722 11.4389 7.35923 9.8128C8.55179 8.17084 12.7046 9.42739 14.3457 8.2342C15.971 7.05157 16.0501 2.70645 18.0026 2.07289C19.8864 1.46046 22.4931 4.90804 24.5828 4.90804C26.6724 4.90804 29.2791 1.46046 31.1629 2.07289C33.1154 2.70645 33.1945 7.05157 34.8198 8.2342C36.4609 9.42739 40.6137 8.17084 41.8063 9.8128C42.9883 11.4389 40.5187 14.9921 41.1519 16.9456C41.7588 18.8251 45.8694 20.24 45.8694 22.3308Z" stroke="white" stroke-width="2.5" stroke-miterlimit="10"/>
<path d="M24.2503 43.4808L33.1734 63.876C33.7697 65.2381 35.6166 65.3912 36.0756 64.1188L37.5479 59.2246C37.8328 58.4274 38.751 58.1159 39.5742 58.5383L44.3814 61.2573C45.6953 61.9278 46.9406 60.7399 46.3496 59.383L35.9807 35.6829" stroke="white" stroke-width="2.5" stroke-miterlimit="10"/>
<path d="M25.7384 40.0808L15.3272 63.876C14.731 65.2381 12.8841 65.3912 12.425 64.1188L10.9528 59.2246C10.6678 58.4274 9.74965 58.1159 8.92647 58.5383L4.11929 61.2573C2.80537 61.9278 1.56004 60.7399 2.15104 59.383L12.5253 35.6829" stroke="white" stroke-width="2.5" stroke-miterlimit="10"/>
</svg>
