<svg width="51" height="54" viewBox="0 0 51 54" fill="none" xmlns="http://www.w3.org/2000/svg">
<path d="M43.6645 37.8633L34.9814 46.5198C33.8689 47.6283 32.3702 48.247 30.7995 48.247H7.92264C4.65231 48.247 2 45.5918 2 42.3179V7.9291C2 4.65521 4.65231 2 7.92264 2H39.4826C42.7529 2 45.4052 4.65521 45.4052 7.9291V33.6614C45.4103 35.2391 44.782 36.7497 43.6645 37.8633Z" stroke="white" stroke-width="2.5" stroke-miterlimit="10"/>
<path d="M48.9281 43.3954L40.245 52.0519C39.1325 53.1604 37.6339 53.779 36.0631 53.779H13.1914C9.92107 53.779 7.26876 51.1238 7.26876 47.8499V13.4611C7.26876 10.1872 9.92107 7.53202 13.1914 7.53202H44.7513C48.0216 7.53202 50.674 10.1872 50.674 13.4611V39.1934C50.674 40.7711 50.0456 42.2817 48.9281 43.3954Z" fill="#907EFF"/>
<path d="M15.7258 21.5492C15.7258 20.9058 16.2474 20.3843 16.8908 20.3843H41.7427C42.386 20.3843 42.9076 20.9058 42.9076 21.5492V21.5492C42.9076 22.1926 42.386 22.7141 41.7427 22.7141H16.8908C16.2474 22.7141 15.7258 22.1926 15.7258 21.5492V21.5492Z" fill="white"/>
<path d="M15.7258 26.986C15.7258 26.3426 16.2474 25.821 16.8908 25.821H41.7427C42.386 25.821 42.9076 26.3426 42.9076 26.986V26.986C42.9076 27.6294 42.386 28.1509 41.7427 28.1509H16.8908C16.2474 28.1509 15.7258 27.6294 15.7258 26.986V26.986Z" fill="white"/>
<path d="M15.7259 32.4222C15.7259 31.7788 16.2475 31.2572 16.8909 31.2572H41.7427C42.3861 31.2572 42.9077 31.7788 42.9077 32.4222V32.4222C42.9077 33.0655 42.3861 33.5871 41.7427 33.5871H16.8909C16.2475 33.5871 15.7259 33.0655 15.7259 32.4222V32.4222Z" fill="white"/>
<path d="M15.7259 37.8585C15.7259 37.2151 16.2475 36.6935 16.8909 36.6935H29.3168C29.9602 36.6935 30.4817 37.2151 30.4817 37.8585V37.8585C30.4817 38.5018 29.9602 39.0234 29.3168 39.0234H16.8909C16.2475 39.0234 15.7259 38.5018 15.7259 37.8585V37.8585Z" fill="white"/>
</svg>
