<svg width="310" height="268" viewBox="0 0 310 268" fill="none" xmlns="http://www.w3.org/2000/svg">
<rect x="27.0565" y="1" width="257.407" height="188.992" stroke="#C6C6C6" stroke-width="2" stroke-linejoin="round" stroke-dasharray="3 3"/>
<rect x="50.7615" y="33.9512" width="259.182" height="195.709" fill="#F1F1F1"/>
<rect x="57.1087" y="62.5142" width="246.487" height="162.914" fill="white"/>
<rect x="77.2088" y="83.6719" width="204.172" height="118.483" rx="8" fill="#5236FF"/>
<rect x="286.67" y="46.646" width="15.8683" height="4.23154" rx="2.11577" fill="#C4C4C4"/>
<circle cx="59.7535" cy="48.2327" r="2.64471" fill="#C4C4C4"/>
<circle cx="67.1588" cy="48.2327" r="2.64471" fill="#C4C4C4"/>
<circle cx="74.564" cy="48.2327" r="2.64471" fill="#C4C4C4"/>
<path d="M111.874 147.72C107.818 145.241 102.014 171.948 99.6199 185.611L269.634 185.892C269.54 185.564 269.296 184.822 269.071 184.484C268.93 183.357 268.225 182.23 265.831 178.85C261.661 175.356 257.896 175.985 256.534 176.737C256.065 177.018 254.675 177.835 252.872 178.85C250.393 179.526 248.74 177.441 248.224 176.314C247.801 175.563 246.533 172.849 244.843 168.004C243.491 163.158 241.275 164.388 240.336 165.609C239.96 165.938 238.871 166.877 237.519 168.004C235.152 168.567 233.622 164.858 233.152 162.933C232.166 159.693 229.884 152.509 228.645 149.692C226.954 146.875 224.654 148.237 223.715 149.27C222.353 151.382 219.376 155.974 218.362 157.439C217.348 158.904 216.155 158.895 215.686 158.707C215.263 158.519 214.136 157.89 213.01 156.876C211.883 156.2 210.662 156.594 210.192 156.876C209.817 157.205 208.868 158.031 208.08 158.707C207.094 158.566 207.094 158.707 206.53 158.144C205.741 157.693 204.229 153.167 203.572 150.96C203.337 150.209 202.586 148.199 201.459 146.171C198.417 143.579 196.529 151.852 195.966 156.312C195.402 160.35 194.247 168.821 194.135 170.398C193.994 172.37 193.29 174.342 192.726 176.314C192.022 177.723 191.458 177.159 190.754 176.737C189.515 174.145 187.327 172.37 186.388 171.807C184.744 171.149 181.091 169.553 179.627 168.426C178.162 167.299 176.575 167.675 175.964 168.004C175.542 168.332 174.33 168.99 172.865 168.99C170.837 168.99 169.297 166.079 168.781 164.623C167.982 163.027 166.245 159.496 165.682 158.144C164.977 156.453 164.132 155.045 162.442 153.214C159.766 151.382 158.075 153.636 156.808 155.045C154.977 156.172 153.85 154.904 152.864 153.214C151.737 151.861 149.765 145.326 148.92 142.227C148.544 141.194 147.37 138.17 145.68 134.339C143.314 130.62 140.656 134.48 139.623 136.874C137.37 142.18 132.665 153.129 131.876 154.481C130.89 156.172 130.327 156.312 128.636 156.312C126.833 156.425 123.753 153.073 122.439 151.382C121.969 151.054 120.861 150.509 120.185 150.96C118.607 152.763 117.368 152.181 116.945 151.664C115.725 150.49 113.001 148.058 111.874 147.72Z" fill="url(#paint0_linear_41_659)" style="mix-blend-mode:multiply"/>
<path d="M269.374 185.893C269.083 185.893 268.82 185.712 268.73 185.429C266.389 177.978 261.818 176.863 259.305 176.863C257.591 176.863 256.167 177.68 254.906 178.394C253.699 179.085 252.565 179.729 251.359 179.556C247.994 179.07 246.497 174.704 245.164 170.849C244.184 167.999 243.177 165.054 241.78 165.102C241.309 165.117 240.728 165.832 240.175 166.515C239.349 167.528 238.415 168.682 237.018 168.682C234.025 168.682 232.592 163.688 231.077 158.404C229.798 153.937 228.337 148.864 226.224 148.731C224.582 148.605 223.013 151.424 221.58 153.889C219.756 157.014 217.87 160.241 215.275 159.362C214.513 159.103 213.96 158.608 213.47 158.176C212.835 157.611 212.309 157.164 211.493 157.203C210.622 157.25 210.069 157.776 209.488 158.333C208.917 158.883 208.264 159.511 207.329 159.386C205.624 159.158 204.726 156.378 203.583 152.861C202.712 150.16 201.515 146.462 200.29 146.462C197.932 146.462 196.608 156.865 195.737 163.743C194.539 173.149 193.85 178.049 191.519 177.798C190.712 177.703 190.276 176.997 189.777 176.165C189.215 175.238 188.444 173.966 186.838 172.859C186.24 172.451 185.958 172.349 185.451 172.176C184.952 172.003 184.28 171.775 183.056 171.155C181.577 170.409 180.652 169.789 179.972 169.341C179.11 168.768 178.684 168.478 177.885 168.376C176.842 168.242 176.28 168.572 175.618 168.957C175.092 169.263 174.493 169.616 173.658 169.695C170.184 170.017 168.171 165.439 166.229 161.011C164.551 157.203 162.819 153.253 160.524 153.253C159.454 153.253 158.873 153.85 158.211 154.541C157.503 155.271 156.714 156.104 155.308 156.104C152.396 156.104 150.709 150.662 148.75 144.365C147.235 139.482 145.348 133.405 143.362 133.405C141.666 133.405 140.133 137.26 138.183 142.143C136.822 145.551 135.135 149.799 132.84 154.094C131.942 155.782 130.908 156.7 129.674 156.897C128.214 157.14 126.545 156.339 124.44 154.376C124.105 154.062 123.769 153.677 123.433 153.277C122.617 152.319 121.828 151.408 120.921 151.487C120.485 151.518 120.222 151.746 119.878 152.029C119.479 152.358 118.98 152.767 118.209 152.806C116.83 152.837 115.705 151.636 114.617 150.443C113.61 149.343 112.567 148.205 111.505 148.205C108.857 148.205 105.537 159.307 100.403 185.335C100.321 185.712 99.9672 185.948 99.6044 185.877C99.2416 185.806 98.9966 185.461 99.0692 185.1C105.437 152.806 108.258 146.894 111.496 146.894C113.156 146.894 114.462 148.315 115.605 149.571C116.485 150.537 117.438 151.526 118.136 151.495C118.444 151.479 118.644 151.33 118.998 151.031C119.415 150.686 119.941 150.246 120.803 150.183C122.427 150.066 123.506 151.322 124.458 152.445C124.758 152.798 125.057 153.151 125.356 153.434C127.107 155.059 128.44 155.774 129.438 155.609C130.227 155.475 130.944 154.785 131.633 153.497C133.892 149.265 135.57 145.056 136.913 141.672C139.226 135.901 140.75 132.085 143.362 132.085C146.337 132.085 148.052 137.597 150.038 143.981C151.535 148.794 153.394 154.785 155.308 154.785C156.088 154.785 156.551 154.353 157.231 153.638C157.966 152.877 158.873 151.934 160.524 151.934C163.699 151.934 165.522 156.088 167.463 160.485C169.223 164.473 171.028 168.596 173.531 168.376C174.058 168.329 174.466 168.093 174.928 167.818C175.654 167.394 176.552 166.868 178.058 167.064C179.174 167.206 179.827 167.646 180.725 168.25C181.405 168.705 182.258 169.279 183.664 169.985C184.806 170.558 185.414 170.77 185.895 170.935C186.43 171.124 186.866 171.265 187.609 171.783C189.451 173.047 190.349 174.524 190.938 175.497C191.174 175.882 191.528 176.471 191.673 176.486C192.798 176.18 193.768 168.603 194.403 163.586C195.818 152.445 196.998 145.143 200.299 145.143C202.513 145.143 203.656 148.7 204.88 152.468C205.588 154.659 206.658 157.964 207.52 158.082C207.792 158.114 208.091 157.847 208.554 157.391C209.189 156.787 210.051 155.954 211.429 155.884C212.826 155.813 213.652 156.543 214.386 157.195C214.822 157.58 215.23 157.941 215.729 158.114C217.28 158.64 218.876 155.884 220.428 153.23C222.142 150.293 223.947 147.263 226.324 147.412C229.39 147.6 230.841 152.672 232.383 158.043C233.635 162.408 235.05 167.355 237.027 167.355C237.771 167.355 238.46 166.507 239.132 165.683C239.875 164.764 240.646 163.814 241.735 163.775C244.084 163.688 245.2 166.805 246.452 170.425C247.658 173.919 249.019 177.876 251.568 178.245C252.311 178.355 253.2 177.845 254.244 177.248C255.577 176.486 257.237 175.536 259.314 175.536C261.636 175.536 267.333 176.463 270.027 185.037C270.136 185.39 269.936 185.759 269.582 185.869C269.51 185.885 269.437 185.893 269.374 185.893Z" fill="#49BAFD"/>
<path d="M106.1 175.751C103.395 175.976 100.559 182.512 99.4793 185.752C154.46 185.799 265.437 185.893 269.493 185.893C269.493 184.202 269.212 181.432 269.071 180.258C268.93 179.742 268.535 178.343 268.085 176.878C266.958 174.173 265.174 173.403 264.422 173.357C263.859 173.263 262.479 172.99 261.464 172.652C259.774 171.976 258.037 169.084 257.38 167.722L255.971 164.201C255.032 162.088 253.013 157.581 252.45 156.454C251.605 155.045 251.323 154.904 250.337 154.482C248.421 154.031 246.158 159.083 245.266 161.665L242.731 168.567L240.899 173.92C240.148 175.657 238.533 179.272 238.082 179.836C237.519 180.54 237.237 180.399 236.533 179.695C234.955 178.23 233.622 178.427 233.152 178.709C232.964 178.803 232.363 179.075 231.462 179.413C230.335 180.089 229.114 178.474 228.645 177.582C228.035 176.549 226.476 174.089 225.123 172.511C223.433 170.539 222.306 170.821 221.602 170.821C220.363 170.821 218.456 172.511 217.658 173.357C217.47 173.591 216.616 174.371 214.7 175.61C212.784 176.85 210.427 175.094 209.488 174.061L206.53 169.976C206.202 169.6 205.291 168.68 204.277 168.004C202.023 166.595 199.91 169.131 198.783 170.539C198.22 171.666 197.14 171.572 196.67 171.385C196.389 171.291 195.515 170.596 194.276 168.567C192.811 165.863 191.318 160.492 190.754 158.144L187.515 143.777L184.557 130.395C184.322 129.221 183.599 126.085 182.585 122.93C181.317 118.986 180.613 119.268 179.768 118.986C178.077 118.986 176.622 123.493 176.105 125.747C174.978 130.536 172.584 140.734 172.02 143.213C171.57 145.58 169.955 150.115 169.203 152.087C169.156 152.228 168.724 153.045 167.372 155.186C165.4 157.721 164.555 156.454 163.006 155.186C160.301 152.594 157.747 155.045 156.808 156.595L154.273 161.384C154.038 161.712 153.343 162.651 152.441 163.778C150.075 165.469 148.169 163.919 147.511 162.933L143.004 156.172C142.628 155.702 141.595 154.482 140.469 153.355C138.778 152.369 137.651 152.932 136.806 153.355C134.271 154.2 131.172 162.651 130.045 165.187C129.144 167.215 127.698 169.694 127.087 170.68C126.993 170.774 126.524 171.272 125.397 172.511C124.27 173.751 122.768 173.497 122.157 173.216C121.829 173.028 120.664 172.371 118.636 171.244C115.819 170.539 114.128 176.033 113.142 177.3C112.016 178.568 111.593 178.005 110.607 177.441C107.508 175.329 107.367 175.751 106.1 175.751Z" fill="url(#paint1_linear_41_659)" style="mix-blend-mode:multiply"/>
<path d="M99.7263 185.884C99.6447 185.884 99.554 185.866 99.4723 185.831C99.1276 185.672 98.9643 185.24 99.1095 184.86C101.622 178.105 104.063 174.82 106.575 174.82C108.281 174.82 109.415 175.677 110.331 176.365C111.093 176.939 111.538 177.257 112.018 177.134C112.844 176.931 113.325 175.862 113.887 174.635C114.495 173.293 115.185 171.774 116.563 170.953C118.224 169.972 119.548 170.802 120.709 171.535C121.453 172.003 122.161 172.454 122.986 172.507C125.889 172.719 128.139 167.65 130.307 162.741C132.657 157.425 134.879 152.41 138.381 152.127C141.347 151.88 143.334 155.2 145.275 158.396C147.072 161.363 148.768 164.171 150.854 163.65C152.433 163.253 153.531 161.222 154.692 159.067C156.134 156.383 157.631 153.611 160.398 153.443C161.976 153.337 162.902 154.193 163.655 154.873C164.244 155.412 164.634 155.739 165.151 155.739H165.16C168.336 155.739 171.003 144.286 173.144 135.085C175.62 124.383 177.153 118.326 179.702 118.282C179.711 118.282 179.721 118.282 179.73 118.282C182.732 118.282 184.683 126.953 187.867 142.255C190.343 154.193 193.745 170.538 197.193 170.538C197.202 170.538 197.211 170.538 197.211 170.538C197.809 170.529 198.345 169.919 198.971 169.222C199.914 168.162 201.066 166.829 203.08 166.926C205.557 167.023 206.936 169.134 208.26 171.173C209.448 172.992 210.564 174.705 212.397 175.156C214.411 175.65 215.853 174.211 217.386 172.683C218.974 171.103 220.779 169.301 223.247 170.246C225.342 171.05 226.784 173.399 228.064 175.474C229.461 177.743 230.386 179.094 231.375 178.785C231.583 178.714 231.801 178.582 232.055 178.432C232.672 178.052 233.443 177.593 234.577 177.778C235.648 177.955 236.264 178.599 236.718 179.067C236.872 179.226 237.063 179.421 237.144 179.456C238.061 179.747 240.601 172.427 241.825 168.895C244.982 159.783 247.277 153.787 250.117 153.787C250.144 153.787 250.18 153.787 250.208 153.787C252.403 153.884 253.963 157.672 255.769 162.061C257.628 166.582 259.742 171.694 262.409 172.198C262.482 172.206 262.59 172.215 262.736 172.233C263.561 172.304 265.276 172.445 266.473 173.504C268.106 174.953 270.056 178.14 270.056 185.151C270.056 185.566 269.757 185.893 269.385 185.893C269.013 185.893 268.714 185.557 268.714 185.151C268.714 178.741 267.045 175.915 265.639 174.67C264.759 173.893 263.325 173.778 262.636 173.725C262.436 173.708 262.282 173.699 262.182 173.672C258.808 173.045 256.639 167.774 254.544 162.688C253.129 159.244 251.514 155.341 250.153 155.279C250.144 155.279 250.126 155.279 250.117 155.279C247.985 155.279 245.155 163.456 243.086 169.434C240.31 177.443 238.768 181.593 236.736 180.886C236.364 180.754 236.074 180.454 235.793 180.171C235.412 179.783 235.031 179.376 234.368 179.27C233.688 179.156 233.225 179.438 232.699 179.756C232.4 179.933 232.091 180.127 231.747 180.233C229.742 180.869 228.39 178.67 226.957 176.33C225.805 174.449 224.498 172.312 222.82 171.677C221.097 171.023 219.799 172.312 218.302 173.814C216.67 175.438 214.81 177.284 212.125 176.63C209.793 176.056 208.405 173.937 207.181 172.065C205.938 170.149 204.858 168.507 203.044 168.436C201.665 168.392 200.812 169.31 199.932 170.29C199.17 171.147 198.39 172.03 197.238 172.048C193.047 172.092 190.262 160.445 186.561 142.608C184.556 132.975 181.825 119.792 179.739 119.792H179.73C178.079 119.818 175.974 128.878 174.432 135.483C171.828 146.679 169.361 157.257 165.142 157.257C165.133 157.257 165.133 157.257 165.124 157.257C164.108 157.248 163.401 156.613 162.784 156.056C162.094 155.429 161.496 154.9 160.452 154.961C158.411 155.085 157.159 157.407 155.835 159.862C154.583 162.193 153.286 164.595 151.145 165.134C148.16 165.875 146.128 162.511 144.15 159.262C142.427 156.418 140.658 153.505 138.472 153.646C135.741 153.867 133.591 158.723 131.514 163.429C129.146 168.772 126.706 174.317 122.895 174.025C121.771 173.946 120.854 173.363 120.047 172.86C118.877 172.118 118.169 171.73 117.198 172.295C116.201 172.886 115.638 174.123 115.094 175.323C114.441 176.763 113.769 178.246 112.318 178.608C111.256 178.873 110.404 178.237 109.578 177.619C108.735 176.983 107.864 176.33 106.575 176.33C105.514 176.33 103.301 177.513 100.352 185.451C100.243 185.708 99.9894 185.884 99.7263 185.884Z" fill="#FFD546"/>
<rect x="234.56" y="118" width="16.9028" height="67.8929" fill="url(#paint2_linear_41_659)"/>
<path d="M242.871 158.285L244.701 161.454H241.041L242.871 158.285Z" fill="white"/>
<path d="M242.871 149.271L244.701 152.44H241.041L242.871 149.271Z" fill="white"/>
<path d="M242.871 140.255L244.701 143.425H241.041L242.871 140.255Z" fill="white"/>
<path d="M242.871 131.24L244.701 134.41H241.041L242.871 131.24Z" fill="white"/>
<path d="M242.871 122.508L244.701 125.677H241.041L242.871 122.508Z" fill="white"/>
<circle cx="243.012" cy="165.327" r="2.5" fill="white" stroke="#FF358A" stroke-width="0.0708399"/>
<g filter="url(#filter0_d_41_659)">
<rect x="16.0565" y="146" width="118.429" height="90.887" rx="9" fill="white"/>
</g>
<rect x="26.1551" y="159.771" width="42.2303" height="3.6722" rx="1.8361" fill="#F1F1F1"/>
<rect x="26.1551" y="166.197" width="18.361" height="3.6722" rx="1.8361" fill="#F1F1F1"/>
<rect x="105.108" y="223.116" width="18.361" height="3.6722" rx="1.8361" fill="#F1F1F1"/>
<path d="M53.4565 195C52.131 195 51.044 193.923 51.1763 192.604C51.5866 188.514 53.0422 184.584 55.4209 181.2C58.2611 177.159 62.2792 174.092 66.9268 172.419C71.5743 170.746 76.6249 170.547 81.3894 171.851C86.1539 173.154 90.4002 175.896 93.5488 179.702C96.6974 183.508 98.5949 188.193 98.9825 193.117C99.37 198.041 98.2287 202.965 95.7143 207.217C93.1998 211.469 89.4347 214.841 84.9328 216.874C81.1625 218.576 77.0293 219.269 72.9354 218.906C71.6151 218.789 70.7606 217.519 71.009 216.217C71.2574 214.915 72.5154 214.077 73.8382 214.161C76.9561 214.36 80.0882 213.794 82.9575 212.499C86.5591 210.873 89.5711 208.175 91.5827 204.774C93.5943 201.372 94.5073 197.433 94.1973 193.494C93.8872 189.554 92.3692 185.806 89.8503 182.761C87.3314 179.717 83.9344 177.523 80.1228 176.48C76.3112 175.438 72.2707 175.597 68.5527 176.935C64.8347 178.274 61.6202 180.727 59.348 183.96C57.5377 186.536 56.3958 189.506 56.0063 192.606C55.841 193.921 54.7819 195 53.4565 195Z" fill="#FF358A"/>
<path d="M68.2253 190.54C68.4333 190.54 68.5933 190.6 68.7053 190.72C68.8173 190.832 68.8733 190.98 68.8733 191.164C68.8733 191.348 68.8173 191.54 68.7053 191.74L64.8773 198.688C64.7173 198.96 64.4973 199.096 64.2173 199.096C64.0253 199.096 63.8533 199.032 63.7013 198.904C63.5573 198.768 63.4853 198.604 63.4853 198.412C63.4853 198.276 63.5253 198.14 63.6053 198.004L67.0493 191.788H63.4253C62.9453 191.788 62.7053 191.584 62.7053 191.176C62.7053 190.752 62.9453 190.54 63.4253 190.54H68.2253ZM74.6046 194.656C75.1006 194.792 75.4806 195.04 75.7446 195.4C76.0166 195.76 76.1526 196.2 76.1526 196.72C76.1526 197.464 75.8726 198.048 75.3126 198.472C74.7526 198.888 73.9766 199.096 72.9846 199.096C71.9926 199.096 71.2166 198.888 70.6566 198.472C70.0966 198.048 69.8166 197.464 69.8166 196.72C69.8166 196.2 69.9526 195.76 70.2246 195.4C70.4966 195.032 70.8806 194.784 71.3766 194.656C70.9526 194.496 70.6206 194.248 70.3806 193.912C70.1406 193.568 70.0206 193.168 70.0206 192.712C70.0206 192.008 70.2846 191.452 70.8126 191.044C71.3406 190.636 72.0646 190.432 72.9846 190.432C73.9046 190.432 74.6286 190.636 75.1566 191.044C75.6846 191.452 75.9486 192.008 75.9486 192.712C75.9486 193.176 75.8286 193.58 75.5886 193.924C75.3486 194.268 75.0206 194.512 74.6046 194.656ZM72.9846 191.644C71.9846 191.644 71.4846 192.052 71.4846 192.868C71.4846 193.276 71.6086 193.588 71.8566 193.804C72.1126 194.012 72.4886 194.116 72.9846 194.116C73.4806 194.116 73.8526 194.012 74.1006 193.804C74.3566 193.588 74.4846 193.276 74.4846 192.868C74.4846 192.052 73.9846 191.644 72.9846 191.644ZM72.9846 197.884C74.1286 197.884 74.7006 197.456 74.7006 196.6C74.7006 195.744 74.1286 195.316 72.9846 195.316C71.8406 195.316 71.2686 195.744 71.2686 196.6C71.2686 197.456 71.8406 197.884 72.9846 197.884ZM80.5639 198.832C80.4919 198.96 80.4039 199.056 80.2999 199.12C80.1959 199.184 80.0919 199.216 79.9879 199.216C79.8439 199.216 79.7159 199.164 79.6039 199.06C79.4999 198.956 79.4479 198.824 79.4479 198.664C79.4479 198.528 79.4879 198.392 79.5679 198.256L83.9359 190.708C84.0079 190.58 84.0959 190.484 84.1999 190.42C84.3039 190.356 84.4079 190.324 84.5119 190.324C84.6559 190.324 84.7799 190.376 84.8839 190.48C84.9959 190.584 85.0519 190.716 85.0519 190.876C85.0519 191.012 85.0119 191.148 84.9319 191.284L80.5639 198.832ZM79.2319 195.592C78.5599 195.592 78.0359 195.372 77.6599 194.932C77.2839 194.492 77.0959 193.848 77.0959 193C77.0959 192.16 77.2839 191.52 77.6599 191.08C78.0359 190.64 78.5599 190.42 79.2319 190.42C79.9039 190.42 80.4279 190.64 80.8039 191.08C81.1879 191.52 81.3799 192.16 81.3799 193C81.3799 193.848 81.1879 194.492 80.8039 194.932C80.4279 195.372 79.9039 195.592 79.2319 195.592ZM79.2319 194.62C79.5359 194.62 79.7559 194.496 79.8919 194.248C80.0359 193.992 80.1079 193.576 80.1079 193C80.1079 192.44 80.0359 192.032 79.8919 191.776C79.7479 191.52 79.5279 191.392 79.2319 191.392C78.9359 191.392 78.7159 191.52 78.5719 191.776C78.4359 192.024 78.3679 192.432 78.3679 193C78.3679 193.576 78.4359 193.992 78.5719 194.248C78.7159 194.496 78.9359 194.62 79.2319 194.62ZM85.2679 199.084C84.5959 199.084 84.0719 198.864 83.6959 198.424C83.3199 197.984 83.1319 197.336 83.1319 196.48C83.1319 195.64 83.3199 195.004 83.6959 194.572C84.0799 194.132 84.6039 193.912 85.2679 193.912C85.9399 193.912 86.4639 194.132 86.8399 194.572C87.2159 195.012 87.4039 195.652 87.4039 196.492C87.4039 197.34 87.2159 197.984 86.8399 198.424C86.4639 198.864 85.9399 199.084 85.2679 199.084ZM85.2679 198.112C85.5639 198.112 85.7839 197.988 85.9279 197.74C86.0719 197.484 86.1439 197.068 86.1439 196.492C86.1439 195.932 86.0719 195.524 85.9279 195.268C85.7839 195.012 85.5639 194.884 85.2679 194.884C84.9719 194.884 84.7519 195.012 84.6079 195.268C84.4639 195.524 84.3919 195.932 84.3919 196.492C84.3919 197.068 84.4639 197.484 84.6079 197.74C84.7519 197.988 84.9719 198.112 85.2679 198.112Z" fill="#141414"/>
<defs>
<filter id="filter0_d_41_659" x="0.0564575" y="135" width="160.429" height="132.887" filterUnits="userSpaceOnUse" color-interpolation-filters="sRGB">
<feFlood flood-opacity="0" result="BackgroundImageFix"/>
<feColorMatrix in="SourceAlpha" type="matrix" values="0 0 0 0 0 0 0 0 0 0 0 0 0 0 0 0 0 0 127 0" result="hardAlpha"/>
<feOffset dx="5" dy="10"/>
<feGaussianBlur stdDeviation="10.5"/>
<feComposite in2="hardAlpha" operator="out"/>
<feColorMatrix type="matrix" values="0 0 0 0 0.700272 0 0 0 0 0.700272 0 0 0 0 0.700272 0 0 0 0.25 0"/>
<feBlend mode="normal" in2="BackgroundImageFix" result="effect1_dropShadow_41_659"/>
<feBlend mode="normal" in="SourceGraphic" in2="effect1_dropShadow_41_659" result="shape"/>
</filter>
<linearGradient id="paint0_linear_41_659" x1="184.627" y1="132.794" x2="184.627" y2="185.892" gradientUnits="userSpaceOnUse">
<stop stop-color="#D1EEFF"/>
<stop offset="1" stop-color="#D3EFFF" stop-opacity="0"/>
</linearGradient>
<linearGradient id="paint1_linear_41_659" x1="184.486" y1="118.986" x2="184.486" y2="185.893" gradientUnits="userSpaceOnUse">
<stop stop-color="#FFF0BE"/>
<stop offset="1" stop-color="#FFF8DE" stop-opacity="0"/>
</linearGradient>
<linearGradient id="paint2_linear_41_659" x1="243.012" y1="118" x2="243.012" y2="185.893" gradientUnits="userSpaceOnUse">
<stop stop-color="#FF358A"/>
<stop offset="1" stop-color="#C4C4C4" stop-opacity="0"/>
</linearGradient>
</defs>
</svg>
