<svg width="1919" height="1552" viewBox="0 0 1919 1552" fill="none" xmlns="http://www.w3.org/2000/svg">
<mask id="mask0_1_77" style="mask-type:alpha" maskUnits="userSpaceOnUse" x="-1" y="0" width="1920" height="1552">
<rect x="-1" width="1920" height="1552" fill="#C4C4C4"/>
</mask>
<g mask="url(#mask0_1_77)">
<path d="M947.5 239.154C947.5 634.398 626.266 954.809 230 954.809C-166.266 954.809 -487.5 634.398 -487.5 239.154C-487.5 -156.089 -166.266 -476.5 230 -476.5C626.266 -476.5 947.5 -156.089 947.5 239.154Z" stroke="#E3E3E3"/>
<path d="M2656.5 446.849C2656.5 903.239 2285.57 1273.22 1828 1273.22C1370.43 1273.22 999.5 903.239 999.5 446.849C999.5 -9.54062 1370.43 -379.52 1828 -379.52C2285.57 -379.52 2656.5 -9.54062 2656.5 446.849Z" stroke="#E3E3E3"/>
<path d="M2406.5 446.848C2406.5 765.521 2147.5 1023.86 1828 1023.86C1508.5 1023.86 1249.5 765.521 1249.5 446.848C1249.5 128.174 1508.5 -130.164 1828 -130.164C2147.5 -130.164 2406.5 128.174 2406.5 446.848Z" stroke="#E3E3E3"/>
</g>
</svg>
